<?xml version="1.0" encoding="UTF-8" standalone="no"?>
<!-- Created with Inkscape (http://www.inkscape.org/) -->

<svg
   width="32"
   height="32"
   viewBox="0 0 132.29166 132.29167"
   version="1.1"
   id="svg1"
   inkscape:version="1.4 (86a8ad7, 2024-10-11)"
   sodipodi:docname="Glogo.svg"
   xmlns:inkscape="http://www.inkscape.org/namespaces/inkscape"
   xmlns:sodipodi="http://sodipodi.sourceforge.net/DTD/sodipodi-0.dtd"
   xmlns="http://www.w3.org/2000/svg"
   xmlns:svg="http://www.w3.org/2000/svg">
  <sodipodi:namedview
     id="namedview1"
     pagecolor="#ffffff"
     bordercolor="#000000"
     borderopacity="0.25"
     inkscape:showpageshadow="2"
     inkscape:pageopacity="0.0"
     inkscape:pagecheckerboard="0"
     inkscape:deskcolor="#d1d1d1"
     inkscape:document-units="px"
     showgrid="false"
     showguides="false"
     inkscape:zoom="1.4142136"
     inkscape:cx="223.79929"
     inkscape:cy="242.18407"
     inkscape:window-width="1920"
     inkscape:window-height="1017"
     inkscape:window-x="-8"
     inkscape:window-y="-8"
     inkscape:window-maximized="1"
     inkscape:current-layer="layer1">
    <inkscape:grid
       id="grid1"
       units="mm"
       originx="0"
       originy="0"
       spacingx="0.99999995"
       spacingy="1"
       empcolor="#0099e5"
       empopacity="0.30196078"
       color="#0099e5"
       opacity="0.14901961"
       empspacing="7"
       enabled="true"
       visible="false" />
  </sodipodi:namedview>
  <defs
     id="defs1" />
  <g
     inkscape:label="Lag 1"
     inkscape:groupmode="layer"
     id="layer1"
     style="display:inline">
    <path
       d="m 104.52691,128.1094 c 1.36062,-0.52605 2.66093,-1.25073 3.8286,-2.1903 4.67069,-3.75828 6.61566,-10.45266 5.76212,-15.41081 -0.85355,-4.95814 -3.08751,-8.79237 -5.17035,-12.493041 -2.08283,-3.70067 -4.1419,-7.202978 -5.30044,-10.136892 -1.15853,-2.933914 -1.34986,-4.901221 -0.93154,-6.398935 0.41831,-1.497714 1.59644,-3.057293 4.09145,-4.908392 2.495,-1.8511 6.04429,-3.691947 9.71784,-5.686575 3.67355,-1.994628 7.54643,-4.020301 10.82737,-7.753091 3.28095,-3.732789 5.08327,-10.467791 3.06562,-16.208321 -2.01765,-5.740533 -7.58424,-9.713753 -12.41987,-10.404293 -4.83563,-0.69054 -9.06337,0.32271 -13.12059,1.22573 -4.05723,0.90301 -7.924315,1.83959 -10.988222,2.07208 -3.063906,0.23248 -4.937726,-0.18436 -6.188919,-1.05631 -1.251192,-0.87195 -2.325778,-2.50804 -3.259278,-5.5263 -0.93351,-3.018268 -1.5308,-7.068408 -2.23144,-11.287148 -0.70063,-4.21875 -1.36777,-8.64183 -3.79255,-13.0110497 -2.42479,-4.36921 -8.07466,-8.21219 -13.99233,-8.00175 -5.91767,0.21043 -11.30608,4.44615 -13.44112,8.97751 -2.13504,4.5313697 -2.51065,8.9891697 -2.93532,13.2479297 -0.42466,4.25876 -0.75697,8.34483 -1.49203,11.422428 -0.73506,3.07759 -1.70038,4.78481 -2.89198,5.74363 -1.19159,0.95881 -3.03428,1.51105 -6.10622,1.49676 -3.07194,-0.0143 -6.992104,-0.67897 -11.098664,-1.29167 -4.10657,-0.6127 -8.38824,-1.32147 -13.16778,-0.289 -4.7795399,1.03247 -10.0747199,5.392973 -11.7143899,11.26356 -1.63966999,5.870586 0.5973,12.460446 4.11341,15.951527 3.5161,3.49108 7.5086699,5.23644 11.3034399,6.965488 3.79476,1.729048 7.45785,3.313093 10.06746,4.982667 2.60961,1.669576 3.8857,3.144574 4.40044,4.609107 0.51475,1.464534 0.45021,3.440135 -0.51485,6.449566 -0.96507,3.009431 -2.79068,6.651672 -4.62804,10.491745 -1.83736,3.84008 -3.81773,7.82362 -4.34687,12.83093 -0.52913,5.00732 1.85027,11.54686 6.75456,14.96465 4.904304,3.41778 11.672414,3.25314 15.980524,0.87938 4.30812,-2.37376 7.1537,-5.75343 9.92366,-8.94358 2.76996,-3.19016 5.36777,-6.29541 7.71567,-8.34115 2.34789,-2.04575 4.10227,-2.84381 5.612,-2.8975 1.50972,-0.0537 3.30937,0.6184 5.78487,2.49262 2.4755,1.87422 5.26927,4.78764 8.24028,7.77364 2.97102,2.986 6.028914,6.1566 10.481435,8.21882 3.33939,1.54667 7.980194,1.75449 12.062044,0.17634 z M 92.021301,109.08614 c -2.756373,-2.77027 -5.887911,-6.17198 -9.76363,-9.106314 -3.87572,-2.934337 -8.85371,-5.565399 -14.78292,-5.354552 -5.92921,0.210848 -10.72476,3.190527 -14.40069,6.393406 -3.67593,3.20288 -6.57717,6.81774 -9.14702,9.77742 -2.56984,2.95968 -4.531526,4.98052 -5.653671,5.4883 -0.582676,0.26367 -1.010436,0.5685 -1.491649,0.17437 -0.539076,-0.44153 -0.64984,-0.78304 -0.51734,-1.47466 0.237237,-1.2383 1.24133,-3.91086 2.94595,-7.47351 1.70462,-3.56265 3.87529,-7.690766 5.38622,-12.402425 1.51093,-4.711658 2.40246,-10.409644 0.38088,-16.161369 -2.02158,-5.751727 -6.24736,-9.532755 -10.33305,-12.146693 -4.085694,-2.61394 -8.312054,-4.341397 -11.832664,-5.945529 -3.52062,-1.604133 -6.26249,-3.218134 -7.14767,-4.087513 -0.35128,-0.345012 -0.52437,-0.628472 -0.27457,-1.16691 0.27472,-0.592148 0.33405,-0.716293 0.83633,-0.842534 1.18749,-0.298461 4.35239,-0.11544 8.16228,0.452996 3.80989,0.568435 8.28399,1.417066 13.093524,1.439438 4.80952,0.02237 10.33814,-0.866161 15.01794,-4.631771 4.6798,-3.765608 6.86374,-9.08343 8.01457,-13.90181 1.15083,-4.81839 1.44048,-9.501158 1.83447,-13.452238 0.39398,-3.95109 1.017378,-7.14982 1.56462,-8.27846 0.2535,-0.52282 0.235235,-0.57314 0.99386,-0.63159 0.545999,-0.0421 0.771686,0.0949 1.03159,0.56053 0.60981,1.09261 1.4502,4.2332 2.10022,8.14716 0.65002,3.91397 1.24436,8.565168 2.70588,13.290648 1.46152,4.72549 3.98607,9.87533 8.89993,13.299781 4.91386,3.424449 10.487763,3.921504 15.284711,3.55752 4.796951,-0.363986 9.204328,-1.530951 12.968438,-2.368724 3.76411,-0.837771 6.90369,-1.203452 8.11456,-1.030625 0.51633,0.0737 0.70743,0.222127 0.88939,0.779697 0.16224,0.497142 0.14342,0.697994 -0.19858,1.186213 -0.71399,1.019241 -3.45614,2.7343 -6.86429,4.584826 -3.40815,1.850526 -7.51497,3.87463 -11.421222,6.772769 -3.906257,2.898139 -7.87456,6.969257 -9.517428,12.851293 -1.642869,5.882036 -0.381826,11.505022 1.432017,16.098449 1.813842,4.593427 4.246845,8.554881 6.179207,11.988201 1.932363,3.43331 2.873908,5.91369 3.252009,7.11541 0.21373,0.6793 0.260127,1.13671 -0.24604,1.63983 -1.637785,1.62793 -6.311693,-3.96989 -7.496162,-5.14103 z"
       id="path5"
       style="opacity:1;fill:#ff5500;stroke-width:1.33962" />
    <ellipse
       style="opacity:1;fill:#ff5500;fill-opacity:1;stroke:#000000;stroke-width:0.638426;stroke-dasharray:none;stroke-opacity:1"
       id="path6"
       cx="-61.054424"
       cy="-74.842697"
       transform="rotate(175.98278)"
       rx="14.364653"
       ry="14.364551" />
  </g>
</svg>
